<?xml version="1.0" standalone="no"?>
<!DOCTYPE svg PUBLIC "-//W3C//DTD SVG 20010904//EN"
 "http://www.w3.org/TR/2001/REC-SVG-20010904/DTD/svg10.dtd">
<svg version="1.0" xmlns="http://www.w3.org/2000/svg"
 width="512.000000pt" height="512.000000pt" viewBox="0 0 512.000000 512.000000"
 preserveAspectRatio="xMidYMid meet">
<metadata>
Created by potrace 1.11, written by Peter Selinger 2001-2013
</metadata>
<g transform="translate(0.000000,512.000000) scale(0.100000,-0.100000)"
fill="#000000" stroke="none">
<path d="M850 5109 c-392 -46 -727 -346 -815 -732 -7 -34 -17 -106 -21 -159
l-7 -98 162 0 161 0 0 -1545 0 -1545 -166 0 -167 0 6 -107 c7 -123 32 -232 80
-342 45 -104 98 -181 191 -279 169 -176 381 -275 624 -289 l102 -6 0 161 0
162 1545 0 1545 0 0 -166 0 -167 108 6 c122 7 231 32 341 80 104 45 181 98
279 191 176 169 275 381 289 623 l6 103 -161 0 -162 0 0 1545 0 1545 166 0
167 0 -6 108 c-7 122 -32 231 -80 341 -45 104 -98 181 -191 279 -169 176 -381
275 -623 289 l-103 6 0 -161 0 -162 -1545 0 -1545 0 0 159 c0 176 2 172 -68
170 -20 -1 -71 -5 -112 -10z m2780 -1334 c0 -133 -1 -145 -18 -145 -41 0 -82
-61 -101 -148 -27 -130 -5 -286 52 -357 59 -74 100 -105 331 -250 165 -103
265 -179 349 -262 113 -112 158 -231 178 -471 25 -303 -37 -547 -168 -649 -94
-75 -234 -121 -391 -130 l-103 -6 3 138 3 137 45 17 c48 18 81 57 101 120 17
54 23 270 9 348 -29 172 -76 220 -451 473 -309 209 -378 286 -424 471 -25 97
-31 337 -11 428 48 227 191 363 436 415 36 8 86 15 113 15 l47 1 0 -145z m287
130 c142 -27 276 -110 341 -212 41 -65 77 -177 97 -303 8 -58 18 -117 20 -132
l5 -28 -229 0 -229 0 -6 88 c-16 203 -50 292 -118 310 l-33 8 -3 129 c-1 71 0
135 2 142 7 17 56 16 153 -2z m-2552 -1265 l0 -1245 -260 0 -260 0 -3 1235
c-1 679 0 1241 3 1248 3 10 61 12 262 10 l258 -3 0 -1245z m422 1224 c169 -34
276 -110 321 -228 46 -120 57 -214 56 -476 0 -261 -15 -372 -62 -481 -61 -140
-206 -206 -492 -224 l-110 -8 0 150 0 149 65 11 c160 27 196 104 196 413 0
165 -4 206 -27 281 -24 76 -84 119 -186 134 l-48 7 0 151 0 150 105 -6 c58 -4
140 -14 182 -23z m623 -1492 c0 -42 -3 -50 -24 -60 -58 -26 -59 -162 -1 -231
24 -28 25 -35 25 -163 l0 -134 -36 -35 c-44 -41 -64 -85 -64 -139 0 -52 22
-96 60 -115 38 -20 66 -19 119 5 24 11 45 20 46 20 2 0 13 -16 25 -35 28 -45
20 -56 -75 -102 -61 -29 -79 -33 -149 -33 -60 0 -90 5 -122 21 -79 38 -134
141 -134 250 0 123 34 176 149 237 l62 34 -64 66 c-38 40 -70 83 -78 107 -20
59 -16 162 9 211 42 82 132 144 210 144 l42 0 0 -48z m198 11 c28 -17 58 -48
77 -77 27 -44 30 -58 30 -130 0 -89 -11 -119 -72 -194 l-35 -42 74 -135 c40
-74 76 -135 80 -135 4 0 39 20 77 45 38 25 72 45 75 45 3 0 6 -27 6 -60 l0
-60 -55 -36 -55 -37 50 -93 c27 -51 50 -95 50 -99 0 -3 -48 -4 -107 -3 l-107
3 -113 209 -113 210 0 127 c0 128 0 128 33 176 28 42 32 56 32 111 0 59 -2 66
-32 93 -28 25 -33 35 -33 75 l0 47 45 -6 c25 -2 67 -18 93 -34z m893 -358 c7
-171 19 -257 43 -302 16 -32 64 -83 77 -83 5 0 9 -63 9 -140 l0 -140 -61 0
c-79 0 -189 25 -265 61 -191 90 -268 262 -290 647 l-7 122 244 -2 244 -3 6
-160z"/>
</g>
</svg>
